<svg id="Capa_1" enable-background="new 0 0 512 512" height="512" viewBox="0 0 512 512" width="512" xmlns="http://www.w3.org/2000/svg"><g><g><g><path d="m506.949 205.257c-1.384-6.88-7.353-11.881-14.368-12.038-.114-.003-.227-.004-.341-.004-6.874 0-12.89 4.685-14.554 11.385-10.836 43.635-41.197 78.121-80.401 95.12l-36.285 36.28-52.035-28.482c-59.509-14.082-104.524-66.068-108.03-128.958l-.224-8.209c.134-64.545 43.966-120.46 106.689-136.037 6.811-1.691 11.538-7.879 11.381-14.895s-5.158-12.984-12.038-14.368c-16.659-3.352-33.731-5.051-50.743-5.051-68.38 0-132.667 26.629-181.02 74.98-48.351 48.353-74.98 112.64-74.98 181.02s26.629 132.667 74.98 181.02c48.353 48.351 112.64 74.98 181.02 74.98s132.667-26.629 181.02-74.98c48.351-48.353 74.98-112.64 74.98-181.02 0-17.012-1.699-34.084-5.051-50.743z" fill="#fff68e"/><path d="m492.581 193.219c-.114-.003-.227-.004-.341-.004-6.874 0-12.89 4.685-14.554 11.385-10.836 43.635-41.197 78.121-80.401 95.12l-36.285 36.28-52.035-28.482c-25.792-6.103-48.858-19.331-67.006-37.477l-166.979 166.979c48.353 48.351 112.64 74.98 181.02 74.98s132.667-26.629 181.02-74.98c48.351-48.353 74.98-112.64 74.98-181.02 0-17.012-1.699-34.084-5.051-50.743-1.384-6.88-7.352-11.881-14.368-12.038z" fill="#ffc178"/><path d="m356 391c30.327 0 55-24.673 55-55 0-13.893-5.188-26.589-13.715-36.28-17.237 7.474-36.181 11.572-55.931 11.572-11.145 0-21.987-1.312-32.39-3.774-5.052 8.313-7.964 18.064-7.964 28.482 0 30.327 24.673 55 55 55z" fill="#ff936b"/></g><g fill="#ffc178"><path d="m176 421c-24.813 0-45-20.187-45-45s20.187-45 45-45 45 20.187 45 45-20.187 45-45 45z"/><circle cx="96" cy="296" r="15"/><path d="m146 121c-30.327 0-55 24.673-55 55s24.673 55 55 55c29.469 0 53.593-23.297 54.935-52.441-.146-2.62-.227-5.258-.227-7.914 0-.099.003-.197.003-.295-2.838-27.683-26.291-49.35-54.711-49.35z"/></g></g><path d="m180.748 331.252-49.495 49.495c2.379 22.59 21.537 40.253 44.747 40.253 24.813 0 45-20.187 45-45 0-23.21-17.663-42.368-40.252-44.748z" fill="#ff936b"/></g></svg>