<svg id="Capa_1" enable-background="new 0 0 512 512" height="512" viewBox="0 0 512 512" width="512" xmlns="http://www.w3.org/2000/svg"><g><g><path d="m76 271h-61c-8.284 0-15-6.716-15-15 0-8.284 6.716-15 15-15h61c8.284 0 15 6.716 15 15 0 8.284-6.716 15-15 15z" fill="#fff68e"/><g><path d="m173.259 95.443-11.481-27.718c-3.17-7.654.464-16.428 8.118-19.598h.001c7.654-3.17 16.428.464 19.598 8.118l11.481 27.718c3.17 7.654-.464 16.428-8.118 19.598h-.001c-7.654 3.17-16.428-.465-19.598-8.118z" fill="#fff68e"/></g><g><path d="m83.962 200.976-27.717-11.481c-7.654-3.17-11.288-11.945-8.118-19.598v-.001c3.17-7.654 11.945-11.288 19.598-8.118l27.717 11.481c7.654 3.17 11.288 11.945 8.118 19.598v.001c-3.17 7.653-11.945 11.288-19.598 8.118z" fill="#fff68e"/></g><g><path d="m408.44 192.858c-3.17-7.654.464-16.429 8.118-19.599l27.718-11.481c7.654-3.17 16.428.464 19.598 8.118v.001c3.17 7.654-.464 16.428-8.118 19.598l-27.718 11.481c-7.654 3.17-16.428-.465-19.598-8.118z" fill="#ffc178"/></g><g><path d="m319.143 103.561c-7.654-3.17-11.289-11.945-8.119-19.598l11.481-27.718c3.17-7.654 11.945-11.288 19.598-8.118h.001c7.654 3.17 11.288 11.945 8.118 19.598l-11.481 27.718c-3.17 7.653-11.944 11.288-19.598 8.118z" fill="#ffc178"/></g><g fill="#fff68e"><path d="m256 391c-74.439 0-135-60.561-135-135s60.561-135 135-135 135 60.561 135 135-60.561 135-135 135z"/><path d="m256 512c-8.285 0-15-6.716-15-15v-61c0-8.284 6.716-15 15-15 8.284 0 15 6.716 15 15v61c0 8.284-6.716 15-15 15z"/><path d="m256 91c-8.285 0-15-6.716-15-15v-61c0-8.284 6.716-15 15-15 8.284 0 15 6.716 15 15v61c0 8.284-6.716 15-15 15z"/></g><path d="m497 271h-61c-8.284 0-15-6.716-15-15 0-8.284 6.716-15 15-15h61c8.284 0 15 6.716 15 15 0 8.284-6.716 15-15 15z" fill="#ffc178"/><path d="m74.981 437.02c-5.858-5.858-5.858-15.355 0-21.213l43.134-43.134c5.858-5.858 15.355-5.858 21.213 0 5.858 5.858 5.858 15.355 0 21.213l-43.134 43.134c-5.858 5.857-15.355 5.857-21.213 0z" fill="#fff68e"/><path d="m415.807 437.02-43.134-43.134c-5.858-5.858-5.858-15.355 0-21.213 5.858-5.858 15.355-5.858 21.213 0l43.134 43.134c5.858 5.858 5.858 15.355 0 21.213-5.858 5.857-15.356 5.857-21.213 0z" fill="#ffc178"/><path d="m118.114 139.327-43.133-43.134c-5.858-5.858-5.858-15.355 0-21.213 5.858-5.858 15.355-5.858 21.213 0l43.134 43.134c5.858 5.858 5.858 15.355 0 21.213-5.859 5.858-15.356 5.858-21.214 0z" fill="#fff68e"/><path d="m372.673 139.327c-5.858-5.858-5.858-15.355 0-21.213l43.134-43.134c5.858-5.858 15.355-5.858 21.213 0 5.858 5.858 5.858 15.355 0 21.213l-43.134 43.134c-5.858 5.858-15.355 5.858-21.213 0z" fill="#ffc178"/><g><path d="m169.897 463.873c-7.654-3.17-11.289-11.945-8.119-19.598l11.481-27.718c3.17-7.654 11.945-11.288 19.598-8.118h.001c7.654 3.17 11.288 11.945 8.118 19.598l-11.481 27.718c-3.17 7.654-11.945 11.288-19.598 8.118z" fill="#fff68e"/></g><g><path d="m48.127 342.104c-3.17-7.654.464-16.429 8.118-19.599l27.717-11.481c7.654-3.17 16.428.464 19.598 8.118v.001c3.17 7.654-.464 16.428-8.118 19.598l-27.717 11.481c-7.653 3.17-16.428-.465-19.598-8.118z" fill="#fff68e"/></g><g><path d="m444.275 350.222-27.718-11.481c-7.654-3.17-11.288-11.945-8.118-19.598v-.001c3.17-7.654 11.945-11.288 19.598-8.118l27.718 11.481c7.654 3.17 11.288 11.945 8.118 19.598v.001c-3.17 7.653-11.945 11.288-19.598 8.118z" fill="#ffc178"/></g><g><path d="m322.505 455.755-11.481-27.718c-3.17-7.654.464-16.428 8.118-19.598h.001c7.654-3.17 16.428.464 19.598 8.118l11.481 27.718c3.17 7.654-.464 16.428-8.118 19.598h-.001c-7.653 3.17-16.428-.464-19.598-8.118z" fill="#ffc178"/></g></g><g fill="#ffc178"><path d="m256 121v270c74.439 0 135-60.561 135-135s-60.561-135-135-135z"/><path d="m256 421v91c8.284 0 15-6.716 15-15v-61c0-8.284-6.716-15-15-15z"/><path d="m256 0v91c8.284 0 15-6.716 15-15v-61c0-8.284-6.716-15-15-15z"/></g></g></svg>