<svg id="Capa_1" enable-background="new 0 0 512 512" height="512" viewBox="0 0 512 512" width="512" xmlns="http://www.w3.org/2000/svg"><g><g><g><g><path d="m497 170h-20c-8.284 0-15-6.716-15-15 0-8.284 6.716-15 15-15h20c8.284 0 15 6.716 15 15 0 8.284-6.716 15-15 15z" fill="#ffc178"/><path d="m431.246 80.754c-5.858-5.858-5.858-15.356 0-21.213l14.142-14.142c5.858-5.858 15.355-5.858 21.213 0 5.858 5.858 5.858 15.355 0 21.213l-14.141 14.142c-5.858 5.858-15.356 5.858-21.214 0z" fill="#ffc178"/><path d="m357 50c-8.284 0-15-6.716-15-15v-20c0-8.284 6.716-15 15-15 8.284 0 15 6.716 15 15v20c0 8.284-6.716 15-15 15z" fill="#fff68e"/><path d="m261.54 80.754-14.142-14.142c-5.858-5.858-5.858-15.355 0-21.213 5.858-5.858 15.355-5.858 21.213 0l14.142 14.142c5.858 5.858 5.858 15.355 0 21.213-5.857 5.858-15.355 5.858-21.213 0z" fill="#fff68e"/><path d="m445.389 264.602-14.142-14.142c-5.858-5.858-5.858-15.355 0-21.213 5.858-5.858 15.355-5.858 21.213 0l14.142 14.142c5.858 5.858 5.858 15.355 0 21.213-5.858 5.858-15.356 5.858-21.213 0z" fill="#ffc178"/></g><path d="m357 240c-46.869 0-85-38.131-85-85s38.131-85 85-85 85 38.131 85 85-38.131 85-85 85z" fill="#fff68e"/><path d="m357 70v170c46.869 0 85-38.131 85-85s-38.131-85-85-85z" fill="#ffc178"/></g><g><path d="m340 390h-250c-49.626 0-90-40.374-90-90 0-44.756 32.833-81.985 75.681-88.862 6.984-70.712 66.801-126.138 139.319-126.138s132.335 55.426 139.319 126.138c42.848 6.877 75.681 44.106 75.681 88.862 0 49.626-40.374 90-90 90z" fill="#f9f9f9"/><path d="m354.319 211.138c-6.984-70.712-66.801-126.138-139.319-126.138v305h125c49.626 0 90-40.374 90-90 0-44.756-32.833-81.985-75.681-88.862z" fill="#e2dff4"/></g><path d="m357 0v50c8.284 0 15-6.716 15-15v-20c0-8.284-6.716-15-15-15z" fill="#ffc178"/></g><g><g><path d="m230 512h-150c-33.084 0-60-26.916-60-60 0-28.26 19.641-52.02 45.987-58.348 6.468-43.319 43.921-76.652 89.013-76.652s82.545 33.333 89.013 76.652c26.346 6.328 45.987 30.088 45.987 58.348 0 33.084-26.916 60-60 60z" fill="#e2dff4"/></g><path d="m244.013 393.652c-6.468-43.319-43.921-76.652-89.013-76.652v195h75c33.084 0 60-26.916 60-60 0-28.26-19.641-52.02-45.987-58.348z" fill="#bebcdd"/></g></g></svg>