<svg id="Capa_1" enable-background="new 0 0 512 512" height="512" viewBox="0 0 512 512" width="512" xmlns="http://www.w3.org/2000/svg"><g><g><g><g><g fill="#7d81e7"><path d="m320.929 421.53c-7.666-3.142-11.334-11.903-8.192-19.568l13.383-32.655c3.142-7.665 11.902-11.333 19.568-8.191h.001c7.666 3.141 11.333 11.902 8.191 19.568l-13.383 32.655c-3.142 7.665-11.902 11.332-19.568 8.191z"/><path d="m284.312 510.876c-7.666-3.142-11.334-11.903-8.192-19.568l13.383-32.655c3.142-7.665 11.902-11.333 19.568-8.191h.001c7.666 3.141 11.333 11.902 8.191 19.568l-13.383 32.655c-3.142 7.665-11.903 11.332-19.568 8.191z"/></g></g><g><g fill="#8bb9ff"><path d="m70.929 421.53c-7.666-3.142-11.334-11.903-8.192-19.568l13.383-32.655c3.142-7.665 11.902-11.333 19.568-8.191h.001c7.666 3.141 11.333 11.902 8.191 19.568l-13.383 32.655c-3.142 7.665-11.902 11.332-19.568 8.191z"/><path d="m34.312 510.876c-7.666-3.142-11.334-11.903-8.192-19.568l13.383-32.655c3.142-7.665 11.902-11.333 19.568-8.191h.001c7.666 3.141 11.333 11.902 8.191 19.568l-13.383 32.655c-3.142 7.665-11.903 11.332-19.568 8.191z"/></g></g><g><g fill="#8bb9ff"><path d="m154.262 421.53c-7.666-3.142-11.334-11.903-8.192-19.568l13.383-32.655c3.142-7.665 11.902-11.333 19.568-8.191h.001c7.666 3.141 11.333 11.902 8.191 19.568l-13.383 32.655c-3.142 7.665-11.902 11.332-19.568 8.191z"/><path d="m117.644 510.875c-7.666-3.142-11.333-11.903-8.191-19.568l13.384-32.655c3.142-7.665 11.902-11.332 19.568-8.191 7.665 3.142 11.333 11.903 8.191 19.568l-13.384 32.655c-3.142 7.666-11.902 11.333-19.568 8.191z"/></g></g><g><g><path d="m237.595 421.53c-7.666-3.142-11.333-11.903-8.191-19.568l13.384-32.655c3.142-7.665 11.902-11.332 19.568-8.191 7.665 3.142 11.333 11.903 8.191 19.568l-13.384 32.655c-3.142 7.665-11.903 11.332-19.568 8.191z" fill="#7d81e7"/><path d="m200.979 510.876c-7.666-3.142-11.334-11.903-8.192-19.568l13.383-32.655c3.142-7.665 11.902-11.333 19.568-8.191h.001c7.666 3.141 11.333 11.902 8.191 19.568l-13.383 32.655c-3.142 7.665-11.903 11.332-19.568 8.191z" fill="#8bb9ff"/></g></g></g><g><g><g><path d="m497 170h-20c-8.284 0-15-6.716-15-15 0-8.284 6.716-15 15-15h20c8.284 0 15 6.716 15 15 0 8.284-6.716 15-15 15z" fill="#ffc178"/><path d="m431.246 80.754c-5.858-5.858-5.858-15.356 0-21.213l14.142-14.142c5.858-5.858 15.355-5.858 21.213 0 5.858 5.858 5.858 15.355 0 21.213l-14.141 14.142c-5.858 5.858-15.356 5.858-21.214 0z" fill="#ffc178"/><path d="m357 50c-8.284 0-15-6.716-15-15v-20c0-8.284 6.716-15 15-15 8.284 0 15 6.716 15 15v20c0 8.284-6.716 15-15 15z" fill="#fff68e"/><path d="m261.54 80.754-14.142-14.142c-5.858-5.858-5.858-15.355 0-21.213 5.858-5.858 15.355-5.858 21.213 0l14.142 14.142c5.858 5.858 5.858 15.355 0 21.213-5.857 5.858-15.355 5.858-21.213 0z" fill="#fff68e"/><path d="m445.389 264.602-14.142-14.142c-5.858-5.858-5.858-15.355 0-21.213 5.858-5.858 15.355-5.858 21.213 0l14.142 14.142c5.858 5.858 5.858 15.355 0 21.213-5.858 5.858-15.356 5.858-21.213 0z" fill="#ffc178"/></g><path d="m357 240c-46.869 0-85-38.131-85-85s38.131-85 85-85 85 38.131 85 85-38.131 85-85 85z" fill="#fff68e"/><path d="m357 70v170c46.869 0 85-38.131 85-85s-38.131-85-85-85z" fill="#ffc178"/></g><g><path d="m340 390h-250c-49.626 0-90-40.374-90-90 0-44.756 32.833-81.985 75.681-88.862 6.984-70.712 66.801-126.138 139.319-126.138s132.335 55.426 139.319 126.138c42.848 6.877 75.681 44.106 75.681 88.862 0 49.626-40.374 90-90 90z" fill="#f9f9f9"/><path d="m354.319 211.138c-6.984-70.712-66.801-126.138-139.319-126.138v305h125c49.626 0 90-40.374 90-90 0-44.756-32.833-81.985-75.681-88.862z" fill="#e2dff4"/></g><path d="m357 0v50c8.284 0 15-6.716 15-15v-20c0-8.284-6.716-15-15-15z" fill="#ffc178"/></g></g><path d="m215 509.47c2.402-1.602 4.369-3.913 5.547-6.786l13.383-32.655c3.142-7.666-.526-16.426-8.191-19.568h-.001c-3.57-1.463-7.371-1.433-10.738-.227z" fill="#7d81e7"/></g></svg>