<svg id="Capa_1" enable-background="new 0 0 512 512" height="512" viewBox="0 0 512 512" width="512" xmlns="http://www.w3.org/2000/svg"><g><g><path d="m398.301 437c-4.142-7.174-13.316-9.632-20.49-5.49l-7.811 4.509v-9.019c0-8.284-6.716-15-15-15-8.284 0-15 6.716-15 15v9.019l-7.811-4.509c-7.174-4.142-16.348-1.684-20.49 5.49-4.142 7.174-1.684 16.348 5.49 20.49l7.811 4.51-7.811 4.51c-7.174 4.142-9.632 13.316-5.49 20.49 4.142 7.174 13.316 9.632 20.49 5.49l7.811-4.509v9.019c0 8.284 6.716 15 15 15 8.284 0 15-6.716 15-15v-9.019l7.811 4.509c7.174 4.142 16.348 1.684 20.49-5.49 4.142-7.174 1.684-16.348-5.49-20.49l-7.811-4.51 7.811-4.51c7.174-4.142 9.632-13.316 5.49-20.49z" fill="#e2dff4"/><g fill="#f9f9f9"><path d="m237.811 431.51-7.811 4.509v-9.019c0-8.284-6.716-15-15-15-8.284 0-15 6.716-15 15v9.019l-7.811-4.509c-7.174-4.142-16.348-1.684-20.49 5.49-4.142 7.174-1.684 16.348 5.49 20.49l7.811 4.51-7.811 4.51c-7.174 4.142-9.632 13.316-5.49 20.49 4.142 7.174 13.316 9.632 20.49 5.49l7.811-4.509v9.019c0 8.284 6.716 15 15 15 8.284 0 15-6.716 15-15v-9.019l7.811 4.509c7.174 4.142 16.348 1.684 20.49-5.49 4.142-7.174 1.684-16.348-5.49-20.49l-7.811-4.51 7.811-4.51c7.174-4.142 9.632-13.316 5.49-20.49-4.142-7.174-13.316-9.632-20.49-5.49z"/><path d="m97.811 431.51-7.811 4.509v-9.019c0-8.284-6.716-15-15-15-8.284 0-15 6.716-15 15v9.019l-7.811-4.509c-7.174-4.142-16.348-1.684-20.49 5.49-4.142 7.174-1.684 16.348 5.49 20.49l7.811 4.51-7.811 4.51c-7.174 4.142-9.632 13.316-5.49 20.49 4.142 7.174 13.316 9.632 20.49 5.49l7.811-4.509v9.019c0 8.284 6.716 15 15 15 8.284 0 15-6.716 15-15v-9.019l7.811 4.509c7.174 4.142 16.348 1.684 20.49-5.49 4.142-7.174 1.684-16.348-5.49-20.49l-7.811-4.51 7.811-4.51c7.174-4.142 9.632-13.316 5.49-20.49-4.142-7.174-13.316-9.632-20.49-5.49z"/></g></g><g><g><g><path d="m497 170h-20c-8.284 0-15-6.716-15-15 0-8.284 6.716-15 15-15h20c8.284 0 15 6.716 15 15 0 8.284-6.716 15-15 15z" fill="#ffc178"/><path d="m431.246 80.754c-5.858-5.858-5.858-15.356 0-21.213l14.142-14.142c5.858-5.858 15.355-5.858 21.213 0 5.858 5.858 5.858 15.355 0 21.213l-14.141 14.142c-5.858 5.858-15.356 5.858-21.214 0z" fill="#ffc178"/><path d="m357 50c-8.284 0-15-6.716-15-15v-20c0-8.284 6.716-15 15-15 8.284 0 15 6.716 15 15v20c0 8.284-6.716 15-15 15z" fill="#fff68e"/><path d="m261.54 80.754-14.142-14.142c-5.858-5.858-5.858-15.355 0-21.213 5.858-5.858 15.355-5.858 21.213 0l14.142 14.142c5.858 5.858 5.858 15.355 0 21.213-5.857 5.858-15.355 5.858-21.213 0z" fill="#fff68e"/><path d="m445.389 264.602-14.142-14.142c-5.858-5.858-5.858-15.355 0-21.213 5.858-5.858 15.355-5.858 21.213 0l14.142 14.142c5.858 5.858 5.858 15.355 0 21.213-5.858 5.858-15.356 5.858-21.213 0z" fill="#ffc178"/></g><path d="m357 240c-46.869 0-85-38.131-85-85s38.131-85 85-85 85 38.131 85 85-38.131 85-85 85z" fill="#fff68e"/><path d="m357 70v170c46.869 0 85-38.131 85-85s-38.131-85-85-85z" fill="#ffc178"/></g><g><path d="m340 390h-250c-49.626 0-90-40.374-90-90 0-44.756 32.833-81.985 75.681-88.862 6.984-70.712 66.801-126.138 139.319-126.138s132.335 55.426 139.319 126.138c42.848 6.877 75.681 44.106 75.681 88.862 0 49.626-40.374 90-90 90z" fill="#f9f9f9"/><path d="m354.319 211.138c-6.984-70.712-66.801-126.138-139.319-126.138v305h125c49.626 0 90-40.374 90-90 0-44.756-32.833-81.985-75.681-88.862z" fill="#e2dff4"/></g><path d="m357 0v50c8.284 0 15-6.716 15-15v-20c0-8.284-6.716-15-15-15z" fill="#ffc178"/></g><path d="m215 512c8.284 0 15-6.716 15-15v-9.019l7.811 4.509c7.174 4.142 16.348 1.684 20.49-5.49 4.142-7.174 1.684-16.348-5.49-20.49l-7.811-4.51 7.811-4.51c7.174-4.142 9.632-13.316 5.49-20.49-4.142-7.174-13.316-9.632-20.49-5.49l-7.811 4.509v-9.019c0-8.284-6.716-15-15-15z" fill="#e2dff4"/></g></svg>