<svg id="Capa_1" enable-background="new 0 0 512 512" height="512" viewBox="0 0 512 512" width="512" xmlns="http://www.w3.org/2000/svg"><g><g><path d="m443.631 429.5c-4.142-7.174-13.316-9.632-20.49-5.49l-12.141 7.009v-14.019c0-8.284-6.716-15-15-15-8.284 0-15 6.716-15 15v14.019l-12.141-7.01c-7.174-4.142-16.348-1.684-20.49 5.49-4.142 7.174-1.684 16.348 5.49 20.49l12.141 7.011-12.141 7.01c-7.174 4.142-9.632 13.316-5.49 20.49 4.142 7.174 13.316 9.632 20.49 5.49l12.141-7.01v14.02c0 8.284 6.716 15 15 15 8.284 0 15-6.716 15-15v-14.019l12.141 7.01c7.174 4.142 16.348 1.684 20.49-5.49 4.142-7.174 1.684-16.348-5.49-20.49l-12.141-7.011 12.141-7.01c7.174-4.142 9.632-13.316 5.49-20.49z" fill="#e2dff4"/><g fill="#f9f9f9"><path d="m283.141 424.01-12.141 7.009v-14.019c0-8.284-6.716-15-15-15-8.284 0-15 6.716-15 15v14.019l-12.141-7.01c-7.174-4.142-16.348-1.684-20.49 5.49-4.142 7.174-1.684 16.348 5.49 20.49l12.141 7.011-12.141 7.01c-7.174 4.142-9.632 13.316-5.49 20.49 4.142 7.174 13.316 9.632 20.49 5.49l12.141-7.01v14.02c0 8.284 6.716 15 15 15 8.284 0 15-6.716 15-15v-14.019l12.141 7.01c7.174 4.142 16.348 1.684 20.49-5.49 4.142-7.174 1.684-16.348-5.49-20.49l-12.141-7.011 12.141-7.01c7.174-4.142 9.632-13.316 5.49-20.49-4.142-7.174-13.316-9.632-20.49-5.49z"/><path d="m143.141 424.01-12.141 7.009v-14.019c0-8.284-6.716-15-15-15-8.284 0-15 6.716-15 15v14.019l-12.141-7.01c-7.174-4.142-16.348-1.684-20.49 5.49-4.142 7.174-1.684 16.348 5.49 20.49l12.141 7.011-12.141 7.01c-7.174 4.142-9.632 13.316-5.49 20.49 4.142 7.174 13.316 9.632 20.49 5.49l12.141-7.01v14.02c0 8.284 6.716 15 15 15 8.284 0 15-6.716 15-15v-14.019l12.141 7.01c7.174 4.142 16.348 1.684 20.49-5.49 4.142-7.174 1.684-16.348-5.49-20.49l-12.141-7.011 12.141-7.01c7.174-4.142 9.632-13.316 5.49-20.49-4.142-7.174-13.316-9.632-20.49-5.49z"/></g></g><g><path d="m407 360h-302c-57.897 0-105-47.103-105-105 0-53.36 40.006-97.55 91.601-104.149 7.198-84.385 78.182-150.851 164.399-150.851 86.784 0 158.228 66.538 165.407 150.985 51.104 7.044 90.593 51.005 90.593 104.015 0 57.897-47.103 105-105 105z" fill="#f9f9f9"/><path d="m421.407 150.985c-7.179-84.447-78.623-150.985-165.407-150.985v360h151c57.897 0 105-47.103 105-105 0-53.01-39.489-96.971-90.593-104.015z" fill="#e2dff4"/></g><path d="m256 512c8.284 0 15-6.716 15-15v-14.019l12.141 7.01c7.174 4.142 16.348 1.684 20.49-5.49 4.142-7.174 1.684-16.348-5.49-20.49l-12.141-7.011 12.141-7.01c7.174-4.142 9.632-13.316 5.49-20.49-4.142-7.174-13.316-9.632-20.49-5.49l-12.141 7.009v-14.019c0-8.284-6.716-15-15-15z" fill="#e2dff4"/></g></svg>