<svg id="Capa_1" enable-background="new 0 0 512 512" height="512" viewBox="0 0 512 512" width="512" xmlns="http://www.w3.org/2000/svg"><g><g><g><g><g><g><g><path d="m334.231 510.842c-7.647-3.186-11.263-11.968-8.077-19.615l15.015-36.037-28.887-17.332c-6.383-3.83-8.991-11.76-6.129-18.631l20-48c3.186-7.647 11.968-11.263 19.615-8.077 7.647 3.186 11.263 11.968 8.077 19.615l-15.015 36.037 28.887 17.332c6.383 3.83 8.991 11.76 6.129 18.631l-20 48c-3.186 7.647-11.968 11.263-19.615 8.077z" fill="#ffc178"/></g><g><path d="m84.231 510.842c-7.647-3.186-11.263-11.968-8.077-19.615l15.015-36.037-28.887-17.332c-6.383-3.83-8.991-11.76-6.128-18.631l20-48c3.186-7.647 11.968-11.263 19.615-8.077 7.647 3.186 11.263 11.968 8.077 19.615l-15.015 36.037 28.887 17.332c6.383 3.83 8.991 11.76 6.128 18.631l-20 48c-3.186 7.647-11.968 11.263-19.615 8.077z" fill="#fff68e"/></g><g><path d="m167.565 510.842c-7.647-3.186-11.263-11.968-8.077-19.615l15.015-36.037-28.887-17.332c-6.383-3.83-8.991-11.76-6.128-18.631l20-48c3.186-7.647 11.968-11.263 19.615-8.077 7.647 3.186 11.263 11.968 8.077 19.615l-15.015 36.037 28.886 17.332c6.383 3.83 8.992 11.761 6.129 18.632l-20 48c-3.186 7.646-11.968 11.262-19.615 8.076z" fill="#fff68e"/></g><g><path d="m250.898 510.842c-7.647-3.186-11.263-11.968-8.077-19.615l15.015-36.037-28.886-17.332c-6.383-3.83-8.992-11.761-6.129-18.632l20-48c3.186-7.647 11.968-11.263 19.615-8.077 7.647 3.186 11.263 11.968 8.077 19.615l-15.015 36.037 28.886 17.332c6.383 3.83 8.992 11.761 6.129 18.632l-20 48c-3.186 7.647-11.968 11.263-19.615 8.077z" fill="#ffc178"/></g></g></g></g></g><g><g><g><path d="m298.653 213.347c-22.634-22.634-36.653-53.884-36.653-88.347 0-68.925 56.075-125 125-125 8.538 0 17.117.881 25.497 2.62 6.826 1.415 11.779 7.35 11.948 14.323.17 6.972-4.488 13.14-11.239 14.886-24.262 6.276-41.206 28.141-41.206 53.171-.001 14.691 5.72 28.503 16.108 38.891s24.201 16.109 38.892 16.109c25.03 0 46.895-16.945 53.171-41.206 1.746-6.751 7.915-11.408 14.886-11.239 6.97.168 12.906 5.121 14.322 11.948 1.739 8.38 2.621 16.959 2.62 25.497 0 68.925-56.075 125-125 125-34.462 0-65.712-14.019-88.346-36.653z" fill="#fff68e"/><path d="m512 125c0-8.538-.881-17.117-2.62-25.497-1.416-6.828-7.352-11.78-14.322-11.948-6.971-.169-13.14 4.488-14.886 11.239-6.278 24.261-28.142 41.206-53.172 41.206-14.691 0-28.502-5.72-38.891-16.109l-89.456 89.456c22.634 22.634 53.884 36.653 88.347 36.653 68.925 0 125-56.075 125-125z" fill="#ffc178"/></g></g></g></g><g><path d="m340 390h-250c-49.626 0-90-40.374-90-90 0-44.756 32.833-81.985 75.681-88.862 6.984-70.712 66.801-126.138 139.319-126.138s132.335 55.426 139.319 126.138c42.848 6.877 75.681 44.106 75.681 88.862 0 49.626-40.374 90-90 90z" fill="#5e54ac"/><path d="m354.319 211.138c-6.984-70.712-66.801-126.138-139.319-126.138v305h125c49.626 0 90-40.374 90-90 0-44.756-32.833-81.985-75.681-88.862z" fill="#453d81"/></g></g></svg>